<?xml version="1.0" encoding="utf-8"?>
<!-- Generator: Adobe Illustrator 18.1.1, SVG Export Plug-In . SVG Version: 6.00 Build 0)  -->
<svg version="1.1" id="Calque_1" xmlns="http://www.w3.org/2000/svg" xmlns:xlink="http://www.w3.org/1999/xlink" x="0px" y="0px"
     viewBox="0 0 500 500" enable-background="new 0 0 500 500" xml:space="preserve">
<g>
    <path d="M432.7,382.5L317.5,250.8l115.2-133.3c19.8-19.8,19.8-52.7,0-72.4c-19.8-19.8-51-19.8-70.8,0L250,173.4L138.1,45
        c-19.8-19.8-51-19.8-70.8,0c-19.8,19.8-19.8,52.7,0,72.4l115.2,133.3L67.3,382.5c-19.8,19.8-19.8,52.7,0,72.4
        c19.8,19.8,51,19.8,70.8,0L250,326.6L361.9,455c19.8,19.8,51,19.8,70.8,0C452.5,435.2,452.5,402.3,432.7,382.5z"/>
</g>
</svg>
