<?xml version="1.0" encoding="utf-8"?>
<!-- Generator: Adobe Illustrator 20.0.0, SVG Export Plug-In . SVG Version: 6.00 Build 0)  -->
<svg version="1.1" id="Calque_1" xmlns="http://www.w3.org/2000/svg" xmlns:xlink="http://www.w3.org/1999/xlink" x="0px" y="0px"
	 viewBox="0 0 500 500" style="enable-background:new 0 0 500 500;" xml:space="preserve">
<path d="M427.4,273.4c1-7.6,1.7-15.3,1.7-23.4c0-8.1-0.7-15.8-1.7-23.4l50.4-39.4c4.5-3.6,5.7-10,2.9-15.3l-47.7-82.6
	c-2.9-5.3-9.3-7.2-14.6-5.3L358.9,108c-12.4-9.5-25.8-17.4-40.3-23.4l-9.1-63.3c-0.7-5.7-5.7-10-11.7-10h-95.5c-6,0-11,4.3-11.7,10
	l-9.1,63.3c-14.6,6-27.9,14.1-40.3,23.4L81.7,84.1c-5.5-2.1-11.7,0-14.6,5.3l-47.7,82.6c-3.1,5.3-1.7,11.7,2.9,15.3l50.4,39.4
	c-1,7.6-1.7,15.5-1.7,23.4s0.7,15.8,1.7,23.4l-50.4,39.4c-4.5,3.6-5.7,10-2.9,15.3l47.7,82.6c2.9,5.3,9.3,7.2,14.6,5.3l59.4-23.9
	c12.4,9.5,25.8,17.4,40.3,23.4l9.1,63.3c0.7,5.7,5.7,10,11.7,10h95.5c6,0,11-4.3,11.7-10l9.1-63.3c14.6-6,27.9-14.1,40.3-23.4
	l59.4,23.9c5.5,2.1,11.7,0,14.6-5.3l47.7-82.6c2.9-5.3,1.7-11.7-2.9-15.3L427.4,273.4z M250.1,333.6c-46.1,0-83.6-37.5-83.6-83.6
	s37.5-83.6,83.6-83.6s83.6,37.5,83.6,83.6S296.1,333.6,250.1,333.6z"/>
</svg>
